<svg width="75" height="75" viewBox="0 0 75 75" fill="none" xmlns="http://www.w3.org/2000/svg">
<path d="M0 0H75V75H0V0Z" fill="black"/>
<path d="M45.6129 58.115H58.2629L57.2179 64H36.8129L43.6329 25.61H51.3329L45.6129 58.115Z" fill="#03CB60"/>
<path d="M45.1491 21.51C44.7824 23.7467 43.8658 25.6167 42.3991 27.12C40.9691 28.5867 39.2091 29.65 37.1191 30.31C38.8791 30.6767 40.2908 31.5567 41.3541 32.95C42.4541 34.3433 43.0041 35.9933 43.0041 37.9C43.0041 38.4133 42.9491 38.9817 42.8391 39.605C42.3258 42.7217 40.7491 45.2333 38.1091 47.14C35.5058 49.0467 32.2424 50 28.3191 50H11.7641L18.5841 11.61H34.4241C37.9074 11.61 40.5841 12.3433 42.4541 13.81C44.3608 15.2767 45.3141 17.2383 45.3141 19.695C45.3141 20.2817 45.2591 20.8867 45.1491 21.51ZM37.1191 22.665C37.1558 22.445 37.1741 22.115 37.1741 21.675C37.1741 20.3917 36.7524 19.4017 35.9091 18.705C35.0658 18.0083 33.8374 17.66 32.2241 17.66H25.2391L23.4791 27.56H30.5191C32.3158 27.56 33.8008 27.1383 34.9741 26.295C36.1474 25.415 36.8624 24.205 37.1191 22.665ZM35.1941 38.67C35.2674 38.1567 35.3041 37.79 35.3041 37.57C35.3041 36.25 34.8274 35.2233 33.8741 34.49C32.9574 33.72 31.6741 33.335 30.0241 33.335H22.4341L20.6191 43.895H28.3741C30.2441 43.895 31.7841 43.4367 32.9941 42.52C34.2041 41.6033 34.9374 40.32 35.1941 38.67Z" fill="white"/>
</svg>
